<svg width="25" height="45" viewBox="0 0 25 45" fill="none" xmlns="http://www.w3.org/2000/svg">
<path d="M12.625 22C18.1478 22 22.625 17.5228 22.625 12C22.625 6.47715 18.1478 2 12.625 2C7.10215 2 2.625 6.47715 2.625 12C2.625 17.5228 7.10215 22 12.625 22Z" stroke="white" stroke-width="2" stroke-linecap="round" stroke-linejoin="round"/>
<path d="M12.625 16V12" stroke="white" stroke-width="2" stroke-linecap="round" stroke-linejoin="round"/>
<path d="M12.625 8H12.635" stroke="white" stroke-width="2" stroke-linecap="round" stroke-linejoin="round"/>
<path d="M4.16021 40V30.3883H2.96124V40H4.16021ZM5.80462 40H6.96362V35.9235C6.96362 34.7512 7.67634 33.9785 8.76874 33.9785C9.83449 33.9785 10.3607 34.5913 10.3607 35.7104V40H11.5197V35.5039C11.5197 33.9319 10.6405 32.9527 9.12177 32.9527C8.04936 32.9527 7.30999 33.4323 6.92366 34.1783H6.89702V33.0726H5.80462V40ZM13.3306 40H14.4896V34.0251H15.9018V33.0726H14.483V32.3066C14.483 31.6205 14.7827 31.2875 15.4089 31.2875C15.602 31.2875 15.7952 31.3075 15.9351 31.3275V30.3883C15.7685 30.3616 15.4888 30.335 15.229 30.335C13.9501 30.335 13.3306 30.9678 13.3306 32.3V33.0726H12.3648V34.0251H13.3306V40ZM19.5977 40.1199C21.5094 40.1199 22.8017 38.7411 22.8017 36.5363C22.8017 34.3249 21.5094 32.9527 19.5977 32.9527C17.6794 32.9527 16.3872 34.3249 16.3872 36.5363C16.3872 38.7411 17.6794 40.1199 19.5977 40.1199ZM19.5977 39.1008C18.3721 39.1008 17.5662 38.1682 17.5662 36.5363C17.5662 34.9044 18.3721 33.9719 19.5977 33.9719C20.8234 33.9719 21.6227 34.9044 21.6227 36.5363C21.6227 38.1682 20.8234 39.1008 19.5977 39.1008Z" fill="white"/>
</svg>
