<svg width="41" height="42" viewBox="0 0 41 42" fill="none" xmlns="http://www.w3.org/2000/svg">
<path d="M20.2969 0.5625H21.7031C21.8281 0.5625 21.8906 0.625 21.8906 0.75V17.25C21.8906 17.375 21.8281 17.4375 21.7031 17.4375H20.2969C20.1719 17.4375 20.1094 17.375 20.1094 17.25V0.75C20.1094 0.625 20.1719 0.5625 20.2969 0.5625Z" fill="white"/>
<path d="M13.125 8.10938H28.875C29 8.10938 29.0625 8.17187 29.0625 8.29688V9.70312C29.0625 9.82812 29 9.89062 28.875 9.89062H13.125C13 9.89062 12.9375 9.82812 12.9375 9.70312V8.29688C12.9375 8.17187 13 8.10938 13.125 8.10938Z" fill="white"/>
<path d="M10.4378 37V27.3883H9.0457L5.72855 35.408H5.67527L2.35812 27.3883H0.965986V37H2.08502V29.593H2.13165L5.19568 36.9334H6.20814L9.27217 29.593H9.3188V37H10.4378ZM12.6551 39.5911C13.9073 39.5911 14.4802 39.1049 15.073 37.4862L17.7973 30.0726H16.5784L14.66 35.841H14.64L12.7217 30.0726H11.4828L14.0406 37.0067L13.8807 37.4929C13.6143 38.2989 13.2546 38.6119 12.6085 38.6119C12.4619 38.6119 12.2821 38.6053 12.1555 38.5786V39.5511C12.2821 39.5778 12.5152 39.5911 12.6551 39.5911ZM27.4474 35.9209H22.8113V27.3883H21.6124V37H27.4474V35.9209ZM28.6055 37H29.7645V30.0726H28.6055V37ZM29.185 28.907C29.5847 28.907 29.9111 28.5806 29.9111 28.1876C29.9111 27.7879 29.5847 27.4682 29.185 27.4682C28.792 27.4682 28.4656 27.7879 28.4656 28.1876C28.4656 28.5806 28.792 28.907 29.185 28.907ZM31.1691 31.9843C31.1691 32.9302 31.7686 33.5563 32.9876 33.8694L34.2065 34.1824C34.9859 34.3889 35.2723 34.6554 35.2723 35.1483C35.2723 35.7744 34.6928 36.174 33.7536 36.174C32.8144 36.174 32.2682 35.7877 32.1416 35.0683H30.9826C31.1025 36.2939 32.1616 37.1199 33.6803 37.1199C35.2989 37.1199 36.4379 36.2673 36.4379 35.0617C36.4379 34.0425 35.9317 33.5363 34.5329 33.1833L33.4605 32.9235C32.6745 32.7237 32.3082 32.404 32.3082 31.9244C32.3082 31.3182 32.8677 30.8986 33.7136 30.8986C34.5662 30.8986 35.1058 31.3116 35.1857 31.9777H36.2914C36.2381 30.8053 35.1857 29.9527 33.7536 29.9527C32.2282 29.9527 31.1691 30.7987 31.1691 31.9843ZM37.9758 28.4007V30.0726H36.9433V31.0251H37.9758V35.2015C37.9758 36.5337 38.4687 37.0533 39.7409 37.0533C40.014 37.0533 40.3338 37.0333 40.4736 37V36.0275C40.3937 36.0408 40.1273 36.0608 39.994 36.0608C39.4012 36.0608 39.1348 35.7744 39.1348 35.1416V31.0251H40.4803V30.0726H39.1348V28.4007H37.9758Z" fill="white"/>
</svg>
